<svg height="983.03998" viewBox="0 0 983.03998 983.03998" width="983.03998" xmlns="http://www.w3.org/2000/svg" xmlns:xlink="http://www.w3.org/1999/xlink"><clipPath id="a"><path d="m0 737.28h737.28v-737.28h-737.28z"/></clipPath><g transform="matrix(1.3333333 0 0 -1.3333333 0 983.04)"><path d="m0 0h737.28v737.28h-737.28z" fill="#c21f33"/><path d="m729.884 7.383h-722.488v722.514h722.488z" fill="#c21f33"/><g fill="#fff"><path d="m0 0-129.578 74.821v-242.044l129.578-39.096z" transform="translate(327.8738 342.495)"/><path d="m0 0v-205.907l130.42 39.21v242.005z" transform="translate(342.1231 341.9995)"/><path d="m0 0h-3.806l15.337-53.582 15.31 53.582h-3.805 3.805v215.347h-3.805-3.806-4.033-7.63-3.761-3.806-3.814v-215.347z" transform="translate(547.4118 179.5646)"/><path d="m0 0-13.89 10.974v-249.185l-143.977-46.524h-6.664-1.315-6.655l-143.337 40.043v255.666l-13.899-10.974v-254.439l156.577-43.345h7.314 1.315 7.314l144.458 45.866 12.759 3.753z" transform="translate(500.3752 406.9206)"/><g clip-path="url(#a)"><path d="m0 0c0 8.475-6.866 15.337-15.319 15.337-8.48 0-15.337-6.862-15.337-15.337v-16.525h30.656z" transform="translate(574.2622 423.441)"/><path d="m0 0 21.914 59.948h.218v-59.948zm21.703-42.748h23.203v23.632h9.891v19.116h-9.891v102.929h-24.071l-42.319-107.006v-15.039h43.187z" transform="translate(98.9786 566.4203)"/><path d="m0 0h24.563v-8.397h-14.269v-17.521h10.206v-8.311h-10.206v-18.602h14.269v-8.399h-24.563z" transform="translate(216.5459 668.735)"/><path d="m0 0c4.248 0 5.869 2.528 5.869 6.231v32.061c0 3.611-1.621 6.142-5.869 6.142h-4.336v-44.434zm16.164 36.394v-28.356c0-9.392-3.878-16.437-14.898-16.437h-15.897v61.23h15.897c11.02 0 14.898-6.953 14.898-16.437" transform="translate(261.2339 615.904)"/><path d="m0 0v-46.329c0-9.484-4.063-15.624-14.536-15.624-10.841 0-15.356 6.14-15.356 15.624v46.329h10.295v-47.321c0-3.615 1.443-6.054 5.061-6.054 3.612 0 5.056 2.439 5.056 6.054v47.321z" transform="translate(313.1397 668.735)"/><path d="m0 0v29.622c0 9.573 4.514 16.529 15.356 16.529 11.375 0 14.536-6.324 14.536-15.353v-7.227h-9.392v8.038c0 3.793-1.265 5.961-4.966 5.961s-5.24-2.619-5.24-6.32v-32.875c0-3.704 1.539-6.323 5.24-6.323s4.966 2.349 4.966 5.961v11.29h9.392v-10.568c0-8.759-3.612-15.261-14.536-15.261-10.842 0-15.356 7.042-15.356 16.526" transform="translate(318.99 623.3086)"/><path d="m0 0h8.222l-4.063 24.566h-.089zm-12.914-19.416 11.56 61.231h11.744l11.649-61.231h-10.568l-1.895 11.197h-10.93l-1.806-11.197z" transform="translate(364.8481 626.9204)"/><path d="m0 0v29.622c0 9.573 4.515 16.529 15.356 16.529 11.376 0 14.536-6.324 14.536-15.353v-7.227h-9.391v8.038c0 3.793-1.266 5.961-4.967 5.961s-5.239-2.619-5.239-6.32v-32.875c0-3.704 1.538-6.323 5.239-6.323s4.967 2.349 4.967 5.961v11.29h9.391v-10.568c0-8.759-3.611-15.261-14.536-15.261-10.841 0-15.356 7.042-15.356 16.526" transform="translate(389.755 623.3086)"/><path d="m425.23 668.735h10.294v-61.23h-10.294z"/><path d="m0 0v32.874c0 3.701-1.628 6.32-5.329 6.32-3.612 0-5.239-2.619-5.239-6.32v-32.874c0-3.704 1.627-6.324 5.239-6.324 3.701 0 5.329 2.62 5.329 6.324m3.071 51.387-16.164-2.076v5.78l16.164 3.431zm-23.934-49.762v29.621c0 9.573 4.699 16.53 15.534 16.53 10.931 0 15.623-6.957 15.623-16.53v-29.621c0-9.484-4.692-16.527-15.623-16.527-10.835 0-15.534 7.043-15.534 16.527" transform="translate(462.3392 621.6841)"/><path d="m0 0v-38.472h-8.673v61.23h10.117l11.108-35.131v35.131h8.578v-61.23h-9.03z" transform="translate(487.1503 645.9769)"/><path d="m0 0c4.248 0 5.869 2.527 5.869 6.231v32.06c0 3.612-1.621 6.143-5.869 6.143h-4.337v-44.434zm16.164 36.397v-28.36c0-9.391-3.879-16.437-14.898-16.437h-15.897v61.23h15.897c11.019 0 14.898-6.952 14.898-16.433" transform="translate(231.1767 530.1547)"/><path d="m0 0h24.564v-8.396h-14.27v-17.521h10.206v-8.311h-10.206v-18.602h14.27v-8.401h-24.564z" transform="translate(253.1906 582.9851)"/><path d="m0 0v29.622c0 9.572 4.514 16.529 15.356 16.529 11.375 0 14.536-6.324 14.536-15.353v-7.227h-9.392v8.038c0 3.793-1.265 5.961-4.966 5.961s-5.24-2.62-5.24-6.321v-32.874c0-3.704 1.539-6.323 5.24-6.323s4.966 2.349 4.966 5.961v11.29h9.392v-10.569c0-8.759-3.612-15.26-14.536-15.26-10.842 0-15.356 7.042-15.356 16.526" transform="translate(298.7289 537.5593)"/><path d="m0 0h8.222l-4.063 24.566h-.09zm-12.915-19.417 11.561 61.231h11.744l11.649-61.231h-10.568l-1.895 11.198h-10.93l-1.806-11.198z" transform="translate(344.587 541.1711)"/><path d="m0 0h10.295v-52.83h12.285v-8.401h-22.58z" transform="translate(370.8481 582.9851)"/><path d="m398.108 582.985h10.294v-61.231h-10.294z"/><path d="m0 0c4.248 0 5.869 2.527 5.869 6.231v32.06c0 3.612-1.621 6.143-5.869 6.143h-4.336v-44.434zm16.164 36.397v-28.36c0-9.391-3.879-16.437-14.898-16.437h-15.897v61.23h15.897c11.019 0 14.898-6.952 14.898-16.433" transform="translate(428.9852 530.1547)"/><path d="m0 0h8.222l-4.063 24.566h-.09zm-12.914-19.417 11.56 61.231h11.744l11.649-61.231h-10.568l-1.895 11.198h-10.93l-1.806-11.198z" transform="translate(460.9248 541.1711)"/><path d="m0 0c4.247 0 5.869 2.527 5.869 6.231v32.06c0 3.612-1.622 6.143-5.869 6.143h-4.337v-44.434zm16.164 36.397v-28.36c0-9.391-3.879-16.437-14.899-16.437h-15.896v61.23h15.896c11.02 0 14.899-6.952 14.899-16.433" transform="translate(501.8174 530.1547)"/></g></g></g></svg>